<svg width="20" height="20" viewBox="0 0 20 20" fill="none" xmlns="http://www.w3.org/2000/svg">
<path d="M15.8327 3.3335H4.16602C3.50297 3.3335 2.86709 3.59689 2.39825 4.06573C1.92941 4.53457 1.66602 5.17045 1.66602 5.8335V14.1668C1.66602 14.8299 1.92941 15.4658 2.39825 15.9346C2.86709 16.4034 3.50297 16.6668 4.16602 16.6668H15.8327C16.4957 16.6668 17.1316 16.4034 17.6005 15.9346C18.0693 15.4658 18.3327 14.8299 18.3327 14.1668V5.8335C18.3327 5.17045 18.0693 4.53457 17.6005 4.06573C17.1316 3.59689 16.4957 3.3335 15.8327 3.3335V3.3335ZM4.16602 5.00016H15.8327C16.0537 5.00016 16.2657 5.08796 16.4219 5.24424C16.5782 5.40052 16.666 5.61248 16.666 5.8335L9.99935 9.90016L3.33268 5.8335C3.33268 5.61248 3.42048 5.40052 3.57676 5.24424C3.73304 5.08796 3.945 5.00016 4.16602 5.00016V5.00016ZM16.666 14.1668C16.666 14.3878 16.5782 14.5998 16.4219 14.7561C16.2657 14.9124 16.0537 15.0002 15.8327 15.0002H4.16602C3.945 15.0002 3.73304 14.9124 3.57676 14.7561C3.42048 14.5998 3.33268 14.3878 3.33268 14.1668V7.7335L9.56602 11.5418C9.6927 11.615 9.8364 11.6535 9.98268 11.6535C10.129 11.6535 10.2727 11.615 10.3993 11.5418L16.666 7.7335V14.1668Z" fill="black" fill-opacity="0.3"/>
</svg>
